Plot

A prosperous couple find the perfect live-in nanny, but soon discover she intends to do her job to deadly
perfection. A thrilling tale that slashes away at the facade of a perfect family.
 
http://www.imdb.com/title/tt0961088/

General
Complete name : While the Children Sleep(The Sitter) 2007 DVDRip Xvid BigPerm LKRG\TS_LKRG.avi
Format : AVI
Format/Info : Audio Video Interleave
Format profile : OpenDML
File size : 1.03 GiB
Duration : 1h 28mn
Overall bit rate : 1 660 Kbps

Video
ID : 0
Format : MPEG-4 Visual
Format profile : Advanced Simple@L5
Format settings, BVOP : Yes
Format settings, QPel : No
Format settings, GMC : No warppoints
Format settings, Matrix : Default (H.263)
Codec ID : XVID
Codec ID/Hint : XviD
Duration : 1h 28mn
Bit rate : 62.3 Kbps
Width : 704 pixels
Height : 396 pixels
Display aspect ratio : 16:9
Frame rate : 29.970 fps
Color space : YUV
Chroma subsampling : 4:2:0
Bit depth : 8 bits
Scan type : Progressive
Compression mode : Lossy
Bits/(Pixel*Frame) : 0.007
Stream size : 39.4 MiB (4%)
Writing library : XviD 1.2.1 (UTC 2008-12-04)

Audio
ID : 1
Format : AC-3
Format/Info : Audio Coding 3
Codec ID : 2000
Duration : 1h 28mn
Bit rate mode : Constant
Bit rate : 192 Kbps
Channel(s) : 2 channels
Sampling rate : 48.0 KHz
Bit depth : 16 bits
Compression mode : Lossy
Stream size : 121 MiB (12%)
Alignment : Aligned on interleaves
Language : ENGLISH
 
http://www.grinshare.com/img/54Y2BR.png
 
http://www.grinshare.com/img/NBJKRJ.png
